<svg width="44" height="44" viewBox="0 0 44 44" fill="none" xmlns="http://www.w3.org/2000/svg">
<g filter="url(#filter0_d_535_371)">
<path d="M16.7972 0C15.6113 0 14.5268 0.668739 13.9943 1.72832L12.7615 4.18137H9.22828C6.34078 4.18137 4 6.52213 4 9.40965V26.1414C4 29.0289 6.34078 31.3697 9.22828 31.3697H19.8835C19.5449 30.7071 19.2685 30.0074 19.0623 29.2784H9.22828C7.49577 29.2784 6.09131 27.8738 6.09131 26.1414V9.40965C6.09131 7.67714 7.49577 6.27268 9.22828 6.27268H13.4063C13.8016 6.27268 14.1631 6.04977 14.3406 5.69656L15.8629 2.66743C16.0404 2.31422 16.4019 2.09131 16.7972 2.09131H24.6694C25.0655 2.09131 25.4275 2.31512 25.6046 2.66941L27.1169 5.69456C27.294 6.04887 27.656 6.27268 28.0521 6.27268H32.2326C33.9653 6.27268 35.3696 7.67714 35.3696 9.40965V15.8984C36.1181 16.2819 36.8189 16.7449 37.4609 17.2763V9.40965C37.4609 6.52215 35.1203 4.18137 32.2326 4.18137H28.6985L27.4753 1.73432C26.9439 0.671436 25.8577 0 24.6694 0H16.7972Z" fill="#212121"/>
<path d="M20.7202 8.36523C24.6438 8.36523 27.9364 11.0665 28.8401 14.7108C28.1351 14.7895 27.4493 14.932 26.7887 15.1323C26.082 12.4414 23.6329 10.4565 20.7202 10.4565C17.2552 10.4565 14.4463 13.2655 14.4463 16.7304C14.4463 19.6432 16.4311 22.0923 19.122 22.799C18.9217 23.4596 18.7793 24.1454 18.7005 24.8504C15.0563 23.9469 12.355 20.6541 12.355 16.7304C12.355 12.1105 16.1002 8.36523 20.7202 8.36523Z" fill="#212121"/>
<path d="M39.5419 26.1411C39.5419 31.3387 35.3286 35.552 30.131 35.552C24.9337 35.552 20.7202 31.3387 20.7202 26.1411C20.7202 20.9436 24.9337 16.7302 30.131 16.7302C35.3286 16.7302 39.5419 20.9436 39.5419 26.1411ZM31.1767 21.9585C31.1767 21.3811 30.7087 20.9128 30.131 20.9128C29.5536 20.9128 29.0854 21.3811 29.0854 21.9585V25.0955H25.9484C25.371 25.0955 24.9028 25.5637 24.9028 26.1411C24.9028 26.7185 25.371 27.1868 25.9484 27.1868H29.0854V30.3237C29.0854 30.9012 29.5536 31.3694 30.131 31.3694C30.7087 31.3694 31.1767 30.9012 31.1767 30.3237V27.1868H34.3137C34.8913 27.1868 35.3593 26.7185 35.3593 26.1411C35.3593 25.5637 34.8913 25.0955 34.3137 25.0955H31.1767V21.9585Z" fill="#212121"/>
</g>
<defs>
<filter id="filter0_d_535_371" x="0" y="0" width="43.5419" height="43.552" filterUnits="userSpaceOnUse" color-interpolation-filters="sRGB">
<feFlood flood-opacity="0" result="BackgroundImageFix"/>
<feColorMatrix in="SourceAlpha" type="matrix" values="0 0 0 0 0 0 0 0 0 0 0 0 0 0 0 0 0 0 127 0" result="hardAlpha"/>
<feOffset dy="4"/>
<feGaussianBlur stdDeviation="2"/>
<feComposite in2="hardAlpha" operator="out"/>
<feColorMatrix type="matrix" values="0 0 0 0 0 0 0 0 0 0 0 0 0 0 0 0 0 0 0.25 0"/>
<feBlend mode="normal" in2="BackgroundImageFix" result="effect1_dropShadow_535_371"/>
<feBlend mode="normal" in="SourceGraphic" in2="effect1_dropShadow_535_371" result="shape"/>
</filter>
</defs>
</svg>
