<?xml version="1.0" encoding="utf-8"?>
<!-- Generator: Adobe Illustrator 24.1.1, SVG Export Plug-In . SVG Version: 6.00 Build 0)  -->
<svg version="1.1" id="Layer_1" xmlns="http://www.w3.org/2000/svg" xmlns:xlink="http://www.w3.org/1999/xlink" x="0px" y="0px"
	 viewBox="0 0 512 512" style="enable-background:new 0 0 512 512;" xml:space="preserve">
<g>
	<path d="M490.7,149.3L478.3,132L328.9,238.6c-5.6,4-8.9,10.4-8.9,17.4c0,6.9,3.3,13.3,8.9,17.4L478.3,380
		c6.5,4.6,15.1,5.3,22.2,1.6c7.1-3.6,11.6-11,11.6-19V149.3c0-8-4.5-15.3-11.6-19c-7.1-3.6-15.7-3-22.2,1.6L490.7,149.3h-21.3v171.9
		L378,256l125-89.3L490.7,149.3h-21.3H490.7z"/>
	<path d="M64,106.7V128h234.7c11.8,0,21.3,9.6,21.3,21.3v213.3c0,11.8-9.6,21.3-21.3,21.3H64c-11.8,0-21.3-9.6-21.3-21.3V149.3
		c0-11.8,9.6-21.3,21.3-21.3V106.7V85.3c-35.4,0-64,28.6-64,64v213.3c0,35.4,28.6,64,64,64h234.7c35.4,0,64-28.6,64-64V149.3
		c0-35.4-28.6-64-64-64H64V106.7z"/>
</g>
</svg>
